<?xml version="1.0" encoding="UTF-8"?>
<svg id="Layer_2" data-name="Layer 2" xmlns="http://www.w3.org/2000/svg" xmlns:xlink="http://www.w3.org/1999/xlink" viewBox="0 0 6986.04 8192">
  <defs>
    <style>
      .cls-1 {
        fill: url(#linear-gradient);
      }

      .cls-1, .cls-2 {
        stroke-width: 0px;
      }

      .cls-3 {
        stroke: #fff;
        stroke-miterlimit: 10;
        stroke-width: .3px;
      }

      .cls-3, .cls-2 {
        fill: none;
      }

      .cls-4 {
        opacity: .5;
      }
    </style>
    <linearGradient id="linear-gradient" x1="16611.46" y1="-910.3" x2="16611.46" y2="-18353.98" gradientTransform="translate(11880.31 9645.82) rotate(-180) scale(.5 -.5)" gradientUnits="userSpaceOnUse">
      <stop offset="0" stop-color="#253355"/>
      <stop offset=".24" stop-color="#1c404e"/>
      <stop offset="1" stop-color="#006837"/>
    </linearGradient>
  </defs>
  <rect class="cls-2" x="-750.58" y="-147.6" width="8487.2" height="8487.2"/>
  <rect class="cls-1" x="-750.58" y="-147.6" width="8487.2" height="8487.2"/>
  <rect class="cls-2" x="-750.58" y="-147.6" width="8487.2" height="8487.2"/>
  <g class="cls-4">
    <g>
      <line class="cls-3" x1="15.12" y1="-766" x2="15.12" y2="9029.75"/>
      <line class="cls-3" x1="43.53" y1="-766" x2="43.53" y2="9029.75"/>
      <line class="cls-3" x1="71.94" y1="-766" x2="71.94" y2="9029.75"/>
      <line class="cls-3" x1="100.35" y1="-766" x2="100.35" y2="9029.75"/>
      <line class="cls-3" x1="128.76" y1="-766" x2="128.76" y2="9029.75"/>
      <line class="cls-3" x1="157.16" y1="-766" x2="157.16" y2="9029.75"/>
      <line class="cls-3" x1="185.57" y1="-766" x2="185.57" y2="9029.75"/>
      <line class="cls-3" x1="213.98" y1="-766" x2="213.98" y2="9029.75"/>
      <line class="cls-3" x1="242.39" y1="-766" x2="242.39" y2="9029.75"/>
      <line class="cls-3" x1="270.8" y1="-766" x2="270.8" y2="9029.75"/>
      <line class="cls-3" x1="299.21" y1="-766" x2="299.21" y2="9029.75"/>
      <line class="cls-3" x1="327.61" y1="-766" x2="327.61" y2="9029.75"/>
      <line class="cls-3" x1="356.02" y1="-766" x2="356.02" y2="9029.75"/>
      <line class="cls-3" x1="384.43" y1="-766" x2="384.43" y2="9029.75"/>
      <line class="cls-3" x1="412.84" y1="-766" x2="412.84" y2="9029.75"/>
      <line class="cls-3" x1="441.25" y1="-766" x2="441.25" y2="9029.75"/>
      <line class="cls-3" x1="469.66" y1="-766" x2="469.66" y2="9029.75"/>
      <line class="cls-3" x1="498.06" y1="-766" x2="498.06" y2="9029.75"/>
      <line class="cls-3" x1="526.47" y1="-766" x2="526.47" y2="9029.75"/>
      <line class="cls-3" x1="554.88" y1="-766" x2="554.88" y2="9029.75"/>
      <line class="cls-3" x1="583.29" y1="-766" x2="583.29" y2="9029.75"/>
      <line class="cls-3" x1="611.7" y1="-766" x2="611.7" y2="9029.75"/>
      <line class="cls-3" x1="640.11" y1="-766" x2="640.11" y2="9029.75"/>
      <line class="cls-3" x1="668.51" y1="-766" x2="668.51" y2="9029.75"/>
      <line class="cls-3" x1="696.92" y1="-766" x2="696.92" y2="9029.75"/>
      <line class="cls-3" x1="725.33" y1="-766" x2="725.33" y2="9029.75"/>
      <line class="cls-3" x1="753.74" y1="-766" x2="753.74" y2="9029.75"/>
      <line class="cls-3" x1="782.15" y1="-766" x2="782.15" y2="9029.75"/>
      <line class="cls-3" x1="810.56" y1="-766" x2="810.56" y2="9029.75"/>
      <line class="cls-3" x1="838.96" y1="-766" x2="838.96" y2="9029.75"/>
      <line class="cls-3" x1="867.37" y1="-766" x2="867.37" y2="9029.75"/>
      <line class="cls-3" x1="895.78" y1="-766" x2="895.78" y2="9029.75"/>
      <line class="cls-3" x1="924.19" y1="-766" x2="924.19" y2="9029.75"/>
      <line class="cls-3" x1="952.6" y1="-766" x2="952.6" y2="9029.75"/>
      <line class="cls-3" x1="981" y1="-766" x2="981" y2="9029.75"/>
      <line class="cls-3" x1="1009.41" y1="-766" x2="1009.41" y2="9029.75"/>
      <line class="cls-3" x1="1037.82" y1="-766" x2="1037.82" y2="9029.75"/>
      <line class="cls-3" x1="1066.23" y1="-766" x2="1066.23" y2="9029.75"/>
      <line class="cls-3" x1="1094.64" y1="-766" x2="1094.64" y2="9029.75"/>
      <line class="cls-3" x1="1123.05" y1="-766" x2="1123.05" y2="9029.75"/>
      <line class="cls-3" x1="1151.45" y1="-766" x2="1151.45" y2="9029.75"/>
      <line class="cls-3" x1="1179.86" y1="-766" x2="1179.86" y2="9029.75"/>
      <line class="cls-3" x1="1208.27" y1="-766" x2="1208.27" y2="9029.75"/>
      <line class="cls-3" x1="1236.68" y1="-766" x2="1236.68" y2="9029.75"/>
      <line class="cls-3" x1="1265.09" y1="-766" x2="1265.09" y2="9029.75"/>
      <line class="cls-3" x1="1293.5" y1="-766" x2="1293.5" y2="9029.75"/>
      <line class="cls-3" x1="1321.9" y1="-766" x2="1321.9" y2="9029.75"/>
      <line class="cls-3" x1="1350.31" y1="-766" x2="1350.31" y2="9029.75"/>
      <line class="cls-3" x1="1378.72" y1="-766" x2="1378.72" y2="9029.75"/>
      <line class="cls-3" x1="1407.13" y1="-766" x2="1407.13" y2="9029.75"/>
      <line class="cls-3" x1="1435.54" y1="-766" x2="1435.54" y2="9029.75"/>
      <line class="cls-3" x1="1463.95" y1="-766" x2="1463.95" y2="9029.75"/>
      <line class="cls-3" x1="1492.35" y1="-766" x2="1492.35" y2="9029.75"/>
      <line class="cls-3" x1="1520.76" y1="-766" x2="1520.76" y2="9029.75"/>
      <line class="cls-3" x1="1549.17" y1="-766" x2="1549.17" y2="9029.75"/>
      <line class="cls-3" x1="1577.58" y1="-766" x2="1577.58" y2="9029.75"/>
      <line class="cls-3" x1="1605.99" y1="-766" x2="1605.99" y2="9029.75"/>
      <line class="cls-3" x1="1634.4" y1="-766" x2="1634.4" y2="9029.75"/>
      <line class="cls-3" x1="1662.8" y1="-766" x2="1662.8" y2="9029.75"/>
      <line class="cls-3" x1="1691.21" y1="-766" x2="1691.21" y2="9029.75"/>
      <line class="cls-3" x1="1719.62" y1="-766" x2="1719.62" y2="9029.75"/>
      <line class="cls-3" x1="1748.03" y1="-766" x2="1748.03" y2="9029.75"/>
      <line class="cls-3" x1="1776.44" y1="-766" x2="1776.44" y2="9029.75"/>
      <line class="cls-3" x1="1804.84" y1="-766" x2="1804.84" y2="9029.75"/>
      <line class="cls-3" x1="1833.25" y1="-766" x2="1833.25" y2="9029.75"/>
      <line class="cls-3" x1="1861.66" y1="-766" x2="1861.66" y2="9029.75"/>
      <line class="cls-3" x1="1890.07" y1="-766" x2="1890.07" y2="9029.75"/>
      <line class="cls-3" x1="1918.48" y1="-766" x2="1918.48" y2="9029.75"/>
      <line class="cls-3" x1="1946.89" y1="-766" x2="1946.89" y2="9029.75"/>
      <line class="cls-3" x1="1975.29" y1="-766" x2="1975.29" y2="9029.75"/>
      <line class="cls-3" x1="2003.7" y1="-766" x2="2003.7" y2="9029.75"/>
      <line class="cls-3" x1="2032.11" y1="-766" x2="2032.11" y2="9029.75"/>
      <line class="cls-3" x1="2060.52" y1="-766" x2="2060.52" y2="9029.75"/>
      <line class="cls-3" x1="2088.93" y1="-766" x2="2088.93" y2="9029.75"/>
      <line class="cls-3" x1="2117.34" y1="-766" x2="2117.34" y2="9029.75"/>
      <line class="cls-3" x1="2145.74" y1="-766" x2="2145.74" y2="9029.75"/>
      <line class="cls-3" x1="2174.15" y1="-766" x2="2174.15" y2="9029.75"/>
      <line class="cls-3" x1="2202.56" y1="-766" x2="2202.56" y2="9029.75"/>
      <line class="cls-3" x1="2230.97" y1="-766" x2="2230.97" y2="9029.75"/>
      <line class="cls-3" x1="2259.38" y1="-766" x2="2259.38" y2="9029.75"/>
      <line class="cls-3" x1="2287.79" y1="-766" x2="2287.79" y2="9029.75"/>
      <line class="cls-3" x1="2316.19" y1="-766" x2="2316.19" y2="9029.75"/>
      <line class="cls-3" x1="2344.6" y1="-766" x2="2344.6" y2="9029.75"/>
      <line class="cls-3" x1="2373.01" y1="-766" x2="2373.01" y2="9029.75"/>
      <line class="cls-3" x1="2401.42" y1="-766" x2="2401.42" y2="9029.75"/>
      <line class="cls-3" x1="2429.83" y1="-766" x2="2429.83" y2="9029.75"/>
      <line class="cls-3" x1="2458.24" y1="-766" x2="2458.24" y2="9029.75"/>
      <line class="cls-3" x1="2486.64" y1="-766" x2="2486.64" y2="9029.75"/>
      <line class="cls-3" x1="2515.05" y1="-766" x2="2515.05" y2="9029.75"/>
      <line class="cls-3" x1="2543.46" y1="-766" x2="2543.46" y2="9029.75"/>
      <line class="cls-3" x1="2571.87" y1="-766" x2="2571.87" y2="9029.75"/>
      <line class="cls-3" x1="2600.28" y1="-766" x2="2600.28" y2="9029.75"/>
      <line class="cls-3" x1="2628.68" y1="-766" x2="2628.68" y2="9029.75"/>
      <line class="cls-3" x1="2657.09" y1="-766" x2="2657.09" y2="9029.75"/>
      <line class="cls-3" x1="2685.5" y1="-766" x2="2685.5" y2="9029.75"/>
      <line class="cls-3" x1="2713.91" y1="-766" x2="2713.91" y2="9029.75"/>
      <line class="cls-3" x1="2742.32" y1="-766" x2="2742.32" y2="9029.75"/>
      <line class="cls-3" x1="2770.73" y1="-766" x2="2770.73" y2="9029.75"/>
      <line class="cls-3" x1="2799.13" y1="-766" x2="2799.13" y2="9029.75"/>
      <line class="cls-3" x1="2827.54" y1="-766" x2="2827.54" y2="9029.75"/>
      <line class="cls-3" x1="2855.95" y1="-766" x2="2855.95" y2="9029.75"/>
      <line class="cls-3" x1="2884.36" y1="-766" x2="2884.36" y2="9029.75"/>
      <line class="cls-3" x1="2912.77" y1="-766" x2="2912.77" y2="9029.75"/>
      <line class="cls-3" x1="2941.18" y1="-766" x2="2941.18" y2="9029.75"/>
      <line class="cls-3" x1="2969.58" y1="-766" x2="2969.58" y2="9029.75"/>
      <line class="cls-3" x1="2997.99" y1="-766" x2="2997.99" y2="9029.75"/>
      <line class="cls-3" x1="3026.4" y1="-766" x2="3026.4" y2="9029.75"/>
      <line class="cls-3" x1="3054.81" y1="-766" x2="3054.81" y2="9029.75"/>
      <line class="cls-3" x1="3083.22" y1="-766" x2="3083.22" y2="9029.75"/>
      <line class="cls-3" x1="3111.63" y1="-766" x2="3111.63" y2="9029.75"/>
      <line class="cls-3" x1="3140.03" y1="-766" x2="3140.03" y2="9029.75"/>
      <line class="cls-3" x1="3168.44" y1="-766" x2="3168.44" y2="9029.75"/>
      <line class="cls-3" x1="3196.85" y1="-766" x2="3196.85" y2="9029.75"/>
      <line class="cls-3" x1="3225.26" y1="-766" x2="3225.26" y2="9029.75"/>
      <line class="cls-3" x1="3253.67" y1="-766" x2="3253.67" y2="9029.75"/>
      <line class="cls-3" x1="3282.07" y1="-766" x2="3282.07" y2="9029.75"/>
      <line class="cls-3" x1="3310.48" y1="-766" x2="3310.48" y2="9029.75"/>
      <line class="cls-3" x1="3338.89" y1="-766" x2="3338.89" y2="9029.75"/>
      <line class="cls-3" x1="3367.3" y1="-766" x2="3367.3" y2="9029.75"/>
      <line class="cls-3" x1="3395.71" y1="-766" x2="3395.71" y2="9029.75"/>
      <line class="cls-3" x1="3424.12" y1="-766" x2="3424.12" y2="9029.75"/>
      <line class="cls-3" x1="3452.52" y1="-766" x2="3452.52" y2="9029.75"/>
      <line class="cls-3" x1="3480.93" y1="-766" x2="3480.93" y2="9029.75"/>
    </g>
    <g>
      <line class="cls-3" x1="3505.11" y1="-766" x2="3505.11" y2="9029.75"/>
      <line class="cls-3" x1="3533.52" y1="-766" x2="3533.52" y2="9029.75"/>
      <line class="cls-3" x1="3561.93" y1="-766" x2="3561.93" y2="9029.75"/>
      <line class="cls-3" x1="3590.33" y1="-766" x2="3590.33" y2="9029.75"/>
      <line class="cls-3" x1="3618.74" y1="-766" x2="3618.74" y2="9029.75"/>
      <line class="cls-3" x1="3647.15" y1="-766" x2="3647.15" y2="9029.75"/>
      <line class="cls-3" x1="3675.56" y1="-766" x2="3675.56" y2="9029.75"/>
      <line class="cls-3" x1="3703.97" y1="-766" x2="3703.97" y2="9029.75"/>
      <line class="cls-3" x1="3732.38" y1="-766" x2="3732.38" y2="9029.75"/>
      <line class="cls-3" x1="3760.78" y1="-766" x2="3760.78" y2="9029.75"/>
      <line class="cls-3" x1="3789.19" y1="-766" x2="3789.19" y2="9029.75"/>
      <line class="cls-3" x1="3817.6" y1="-766" x2="3817.6" y2="9029.75"/>
      <line class="cls-3" x1="3846.01" y1="-766" x2="3846.01" y2="9029.75"/>
      <line class="cls-3" x1="3874.42" y1="-766" x2="3874.42" y2="9029.75"/>
      <line class="cls-3" x1="3902.83" y1="-766" x2="3902.83" y2="9029.75"/>
      <line class="cls-3" x1="3931.23" y1="-766" x2="3931.23" y2="9029.75"/>
      <line class="cls-3" x1="3959.64" y1="-766" x2="3959.64" y2="9029.75"/>
      <line class="cls-3" x1="3988.05" y1="-766" x2="3988.05" y2="9029.75"/>
      <line class="cls-3" x1="4016.46" y1="-766" x2="4016.46" y2="9029.75"/>
      <line class="cls-3" x1="4044.87" y1="-766" x2="4044.87" y2="9029.75"/>
      <line class="cls-3" x1="4073.28" y1="-766" x2="4073.28" y2="9029.75"/>
      <line class="cls-3" x1="4101.68" y1="-766" x2="4101.68" y2="9029.75"/>
      <line class="cls-3" x1="4130.09" y1="-766" x2="4130.09" y2="9029.75"/>
      <line class="cls-3" x1="4158.5" y1="-766" x2="4158.5" y2="9029.75"/>
      <line class="cls-3" x1="4186.91" y1="-766" x2="4186.91" y2="9029.75"/>
      <line class="cls-3" x1="4215.32" y1="-766" x2="4215.32" y2="9029.75"/>
      <line class="cls-3" x1="4243.73" y1="-766" x2="4243.73" y2="9029.75"/>
      <line class="cls-3" x1="4272.13" y1="-766" x2="4272.13" y2="9029.75"/>
      <line class="cls-3" x1="4300.54" y1="-766" x2="4300.54" y2="9029.75"/>
      <line class="cls-3" x1="4328.95" y1="-766" x2="4328.95" y2="9029.75"/>
      <line class="cls-3" x1="4357.36" y1="-766" x2="4357.36" y2="9029.75"/>
      <line class="cls-3" x1="4385.77" y1="-766" x2="4385.77" y2="9029.75"/>
      <line class="cls-3" x1="4414.17" y1="-766" x2="4414.17" y2="9029.75"/>
      <line class="cls-3" x1="4442.58" y1="-766" x2="4442.58" y2="9029.75"/>
      <line class="cls-3" x1="4470.99" y1="-766" x2="4470.99" y2="9029.75"/>
      <line class="cls-3" x1="4499.4" y1="-766" x2="4499.4" y2="9029.75"/>
      <line class="cls-3" x1="4527.81" y1="-766" x2="4527.81" y2="9029.75"/>
      <line class="cls-3" x1="4556.22" y1="-766" x2="4556.22" y2="9029.75"/>
      <line class="cls-3" x1="4584.62" y1="-766" x2="4584.62" y2="9029.75"/>
      <line class="cls-3" x1="4613.03" y1="-766" x2="4613.03" y2="9029.75"/>
      <line class="cls-3" x1="4641.44" y1="-766" x2="4641.44" y2="9029.75"/>
      <line class="cls-3" x1="4669.85" y1="-766" x2="4669.85" y2="9029.75"/>
      <line class="cls-3" x1="4698.26" y1="-766" x2="4698.26" y2="9029.75"/>
      <line class="cls-3" x1="4726.67" y1="-766" x2="4726.67" y2="9029.75"/>
      <line class="cls-3" x1="4755.07" y1="-766" x2="4755.07" y2="9029.75"/>
      <line class="cls-3" x1="4783.48" y1="-766" x2="4783.48" y2="9029.75"/>
      <line class="cls-3" x1="4811.89" y1="-766" x2="4811.89" y2="9029.75"/>
      <line class="cls-3" x1="4840.3" y1="-766" x2="4840.3" y2="9029.75"/>
      <line class="cls-3" x1="4868.71" y1="-766" x2="4868.71" y2="9029.75"/>
      <line class="cls-3" x1="4897.12" y1="-766" x2="4897.12" y2="9029.75"/>
      <line class="cls-3" x1="4925.52" y1="-766" x2="4925.52" y2="9029.75"/>
      <line class="cls-3" x1="4953.93" y1="-766" x2="4953.93" y2="9029.75"/>
      <line class="cls-3" x1="4982.34" y1="-766" x2="4982.34" y2="9029.75"/>
      <line class="cls-3" x1="5010.75" y1="-766" x2="5010.75" y2="9029.75"/>
      <line class="cls-3" x1="5039.16" y1="-766" x2="5039.16" y2="9029.75"/>
      <line class="cls-3" x1="5067.57" y1="-766" x2="5067.57" y2="9029.75"/>
      <line class="cls-3" x1="5095.97" y1="-766" x2="5095.97" y2="9029.75"/>
      <line class="cls-3" x1="5124.38" y1="-766" x2="5124.38" y2="9029.75"/>
      <line class="cls-3" x1="5152.79" y1="-766" x2="5152.79" y2="9029.75"/>
      <line class="cls-3" x1="5181.2" y1="-766" x2="5181.2" y2="9029.75"/>
      <line class="cls-3" x1="5209.61" y1="-766" x2="5209.61" y2="9029.75"/>
      <line class="cls-3" x1="5238.01" y1="-766" x2="5238.01" y2="9029.75"/>
      <line class="cls-3" x1="5266.42" y1="-766" x2="5266.42" y2="9029.75"/>
      <line class="cls-3" x1="5294.83" y1="-766" x2="5294.83" y2="9029.75"/>
      <line class="cls-3" x1="5323.24" y1="-766" x2="5323.24" y2="9029.75"/>
      <line class="cls-3" x1="5351.65" y1="-766" x2="5351.65" y2="9029.75"/>
      <line class="cls-3" x1="5380.06" y1="-766" x2="5380.06" y2="9029.75"/>
      <line class="cls-3" x1="5408.46" y1="-766" x2="5408.46" y2="9029.75"/>
      <line class="cls-3" x1="5436.87" y1="-766" x2="5436.87" y2="9029.75"/>
      <line class="cls-3" x1="5465.28" y1="-766" x2="5465.28" y2="9029.75"/>
      <line class="cls-3" x1="5493.69" y1="-766" x2="5493.69" y2="9029.75"/>
      <line class="cls-3" x1="5522.1" y1="-766" x2="5522.1" y2="9029.75"/>
      <line class="cls-3" x1="5550.51" y1="-766" x2="5550.51" y2="9029.75"/>
      <line class="cls-3" x1="5578.91" y1="-766" x2="5578.91" y2="9029.75"/>
      <line class="cls-3" x1="5607.32" y1="-766" x2="5607.32" y2="9029.75"/>
      <line class="cls-3" x1="5635.73" y1="-766" x2="5635.73" y2="9029.75"/>
      <line class="cls-3" x1="5664.14" y1="-766" x2="5664.14" y2="9029.75"/>
      <line class="cls-3" x1="5692.55" y1="-766" x2="5692.55" y2="9029.75"/>
      <line class="cls-3" x1="5720.96" y1="-766" x2="5720.96" y2="9029.75"/>
      <line class="cls-3" x1="5749.36" y1="-766" x2="5749.36" y2="9029.75"/>
      <line class="cls-3" x1="5777.77" y1="-766" x2="5777.77" y2="9029.75"/>
      <line class="cls-3" x1="5806.18" y1="-766" x2="5806.18" y2="9029.75"/>
      <line class="cls-3" x1="5834.59" y1="-766" x2="5834.59" y2="9029.75"/>
      <line class="cls-3" x1="5863" y1="-766" x2="5863" y2="9029.75"/>
      <line class="cls-3" x1="5891.41" y1="-766" x2="5891.41" y2="9029.75"/>
      <line class="cls-3" x1="5919.81" y1="-766" x2="5919.81" y2="9029.75"/>
      <line class="cls-3" x1="5948.22" y1="-766" x2="5948.22" y2="9029.75"/>
      <line class="cls-3" x1="5976.63" y1="-766" x2="5976.63" y2="9029.75"/>
      <line class="cls-3" x1="6005.04" y1="-766" x2="6005.04" y2="9029.75"/>
      <line class="cls-3" x1="6033.45" y1="-766" x2="6033.45" y2="9029.75"/>
      <line class="cls-3" x1="6061.85" y1="-766" x2="6061.85" y2="9029.75"/>
      <line class="cls-3" x1="6090.26" y1="-766" x2="6090.26" y2="9029.75"/>
      <line class="cls-3" x1="6118.67" y1="-766" x2="6118.67" y2="9029.75"/>
      <line class="cls-3" x1="6147.08" y1="-766" x2="6147.08" y2="9029.75"/>
      <line class="cls-3" x1="6175.49" y1="-766" x2="6175.49" y2="9029.75"/>
      <line class="cls-3" x1="6203.9" y1="-766" x2="6203.9" y2="9029.75"/>
      <line class="cls-3" x1="6232.3" y1="-766" x2="6232.3" y2="9029.75"/>
      <line class="cls-3" x1="6260.71" y1="-766" x2="6260.71" y2="9029.75"/>
      <line class="cls-3" x1="6289.12" y1="-766" x2="6289.12" y2="9029.75"/>
      <line class="cls-3" x1="6317.53" y1="-766" x2="6317.53" y2="9029.75"/>
      <line class="cls-3" x1="6345.94" y1="-766" x2="6345.94" y2="9029.75"/>
      <line class="cls-3" x1="6374.35" y1="-766" x2="6374.35" y2="9029.75"/>
      <line class="cls-3" x1="6402.75" y1="-766" x2="6402.75" y2="9029.75"/>
      <line class="cls-3" x1="6431.16" y1="-766" x2="6431.16" y2="9029.75"/>
      <line class="cls-3" x1="6459.57" y1="-766" x2="6459.57" y2="9029.75"/>
      <line class="cls-3" x1="6487.98" y1="-766" x2="6487.98" y2="9029.75"/>
      <line class="cls-3" x1="6516.39" y1="-766" x2="6516.39" y2="9029.75"/>
      <line class="cls-3" x1="6544.8" y1="-766" x2="6544.8" y2="9029.75"/>
      <line class="cls-3" x1="6573.2" y1="-766" x2="6573.2" y2="9029.75"/>
      <line class="cls-3" x1="6601.61" y1="-766" x2="6601.61" y2="9029.75"/>
      <line class="cls-3" x1="6630.02" y1="-766" x2="6630.02" y2="9029.75"/>
      <line class="cls-3" x1="6658.43" y1="-766" x2="6658.43" y2="9029.75"/>
      <line class="cls-3" x1="6686.84" y1="-766" x2="6686.84" y2="9029.75"/>
      <line class="cls-3" x1="6715.25" y1="-766" x2="6715.25" y2="9029.75"/>
      <line class="cls-3" x1="6743.65" y1="-766" x2="6743.65" y2="9029.75"/>
      <line class="cls-3" x1="6772.06" y1="-766" x2="6772.06" y2="9029.75"/>
      <line class="cls-3" x1="6800.47" y1="-766" x2="6800.47" y2="9029.75"/>
      <line class="cls-3" x1="6828.88" y1="-766" x2="6828.88" y2="9029.75"/>
      <line class="cls-3" x1="6857.29" y1="-766" x2="6857.29" y2="9029.75"/>
      <line class="cls-3" x1="6885.69" y1="-766" x2="6885.69" y2="9029.75"/>
      <line class="cls-3" x1="6914.1" y1="-766" x2="6914.1" y2="9029.75"/>
      <line class="cls-3" x1="6942.51" y1="-766" x2="6942.51" y2="9029.75"/>
      <line class="cls-3" x1="6970.92" y1="-766" x2="6970.92" y2="9029.75"/>
    </g>
  </g>
  <g class="cls-4">
    <g>
      <line class="cls-3" x1="8390.9" y1="5.87" x2="-1404.85" y2="5.87"/>
      <line class="cls-3" x1="8390.9" y1="36.57" x2="-1404.85" y2="36.57"/>
      <line class="cls-3" x1="8390.9" y1="67.26" x2="-1404.85" y2="67.26"/>
      <line class="cls-3" x1="8390.9" y1="97.96" x2="-1404.85" y2="97.96"/>
      <line class="cls-3" x1="8390.9" y1="128.65" x2="-1404.85" y2="128.65"/>
      <line class="cls-3" x1="8390.9" y1="159.34" x2="-1404.85" y2="159.34"/>
      <line class="cls-3" x1="8390.9" y1="190.04" x2="-1404.85" y2="190.04"/>
      <line class="cls-3" x1="8390.9" y1="220.73" x2="-1404.85" y2="220.73"/>
      <line class="cls-3" x1="8390.9" y1="251.42" x2="-1404.85" y2="251.42"/>
      <line class="cls-3" x1="8390.9" y1="282.12" x2="-1404.85" y2="282.12"/>
      <line class="cls-3" x1="8390.9" y1="312.81" x2="-1404.85" y2="312.81"/>
      <line class="cls-3" x1="8390.9" y1="343.5" x2="-1404.85" y2="343.5"/>
      <line class="cls-3" x1="8390.9" y1="374.2" x2="-1404.85" y2="374.2"/>
      <line class="cls-3" x1="8390.9" y1="404.89" x2="-1404.85" y2="404.89"/>
      <line class="cls-3" x1="8390.9" y1="435.58" x2="-1404.85" y2="435.58"/>
      <line class="cls-3" x1="8390.9" y1="466.28" x2="-1404.85" y2="466.28"/>
      <line class="cls-3" x1="8390.9" y1="496.97" x2="-1404.85" y2="496.97"/>
      <line class="cls-3" x1="8390.9" y1="527.67" x2="-1404.85" y2="527.67"/>
      <line class="cls-3" x1="8390.9" y1="558.36" x2="-1404.85" y2="558.36"/>
      <line class="cls-3" x1="8390.9" y1="589.05" x2="-1404.85" y2="589.05"/>
      <line class="cls-3" x1="8390.9" y1="619.75" x2="-1404.85" y2="619.75"/>
      <line class="cls-3" x1="8390.9" y1="650.44" x2="-1404.85" y2="650.44"/>
      <line class="cls-3" x1="8390.9" y1="681.13" x2="-1404.85" y2="681.13"/>
      <line class="cls-3" x1="8390.9" y1="711.83" x2="-1404.85" y2="711.83"/>
      <line class="cls-3" x1="8390.9" y1="742.52" x2="-1404.85" y2="742.52"/>
      <line class="cls-3" x1="8390.9" y1="773.21" x2="-1404.85" y2="773.21"/>
      <line class="cls-3" x1="8390.9" y1="803.91" x2="-1404.85" y2="803.91"/>
      <line class="cls-3" x1="8390.9" y1="834.6" x2="-1404.85" y2="834.6"/>
      <line class="cls-3" x1="8390.9" y1="865.29" x2="-1404.85" y2="865.29"/>
      <line class="cls-3" x1="8390.9" y1="895.99" x2="-1404.85" y2="895.99"/>
      <line class="cls-3" x1="8390.9" y1="926.68" x2="-1404.85" y2="926.68"/>
      <line class="cls-3" x1="8390.9" y1="957.38" x2="-1404.85" y2="957.38"/>
      <line class="cls-3" x1="8390.9" y1="988.07" x2="-1404.85" y2="988.07"/>
      <line class="cls-3" x1="8390.9" y1="1018.76" x2="-1404.85" y2="1018.76"/>
      <line class="cls-3" x1="8390.9" y1="1049.46" x2="-1404.85" y2="1049.46"/>
      <line class="cls-3" x1="8390.9" y1="1080.15" x2="-1404.85" y2="1080.15"/>
      <line class="cls-3" x1="8390.9" y1="1110.84" x2="-1404.85" y2="1110.84"/>
      <line class="cls-3" x1="8390.9" y1="1141.54" x2="-1404.85" y2="1141.54"/>
      <line class="cls-3" x1="8390.9" y1="1172.23" x2="-1404.85" y2="1172.23"/>
      <line class="cls-3" x1="8390.9" y1="1202.92" x2="-1404.85" y2="1202.92"/>
      <line class="cls-3" x1="8390.9" y1="1233.62" x2="-1404.85" y2="1233.62"/>
      <line class="cls-3" x1="8390.9" y1="1264.31" x2="-1404.85" y2="1264.31"/>
      <line class="cls-3" x1="8390.9" y1="1295.01" x2="-1404.85" y2="1295.01"/>
      <line class="cls-3" x1="8390.9" y1="1325.7" x2="-1404.85" y2="1325.7"/>
      <line class="cls-3" x1="8390.9" y1="1356.39" x2="-1404.85" y2="1356.39"/>
      <line class="cls-3" x1="8390.9" y1="1387.09" x2="-1404.85" y2="1387.09"/>
      <line class="cls-3" x1="8390.9" y1="1417.78" x2="-1404.85" y2="1417.78"/>
      <line class="cls-3" x1="8390.9" y1="1448.47" x2="-1404.85" y2="1448.47"/>
      <line class="cls-3" x1="8390.9" y1="1479.17" x2="-1404.85" y2="1479.17"/>
      <line class="cls-3" x1="8390.9" y1="1509.86" x2="-1404.85" y2="1509.86"/>
      <line class="cls-3" x1="8390.9" y1="1540.55" x2="-1404.85" y2="1540.55"/>
      <line class="cls-3" x1="8390.9" y1="1571.25" x2="-1404.85" y2="1571.25"/>
      <line class="cls-3" x1="8390.9" y1="1601.94" x2="-1404.85" y2="1601.94"/>
      <line class="cls-3" x1="8390.9" y1="1632.63" x2="-1404.85" y2="1632.63"/>
      <line class="cls-3" x1="8390.9" y1="1663.33" x2="-1404.85" y2="1663.33"/>
      <line class="cls-3" x1="8390.9" y1="1694.02" x2="-1404.85" y2="1694.02"/>
      <line class="cls-3" x1="8390.9" y1="1724.72" x2="-1404.85" y2="1724.72"/>
      <line class="cls-3" x1="8390.9" y1="1755.41" x2="-1404.85" y2="1755.41"/>
      <line class="cls-3" x1="8390.9" y1="1786.1" x2="-1404.85" y2="1786.1"/>
      <line class="cls-3" x1="8390.9" y1="1816.8" x2="-1404.85" y2="1816.8"/>
      <line class="cls-3" x1="8390.9" y1="1847.49" x2="-1404.85" y2="1847.49"/>
      <line class="cls-3" x1="8390.9" y1="1878.18" x2="-1404.85" y2="1878.18"/>
      <line class="cls-3" x1="8390.9" y1="1908.88" x2="-1404.85" y2="1908.88"/>
      <line class="cls-3" x1="8390.9" y1="1939.57" x2="-1404.85" y2="1939.57"/>
      <line class="cls-3" x1="8390.9" y1="1970.26" x2="-1404.85" y2="1970.26"/>
      <line class="cls-3" x1="8390.9" y1="2000.96" x2="-1404.85" y2="2000.96"/>
      <line class="cls-3" x1="8390.9" y1="2031.65" x2="-1404.85" y2="2031.65"/>
      <line class="cls-3" x1="8390.9" y1="2062.34" x2="-1404.85" y2="2062.34"/>
      <line class="cls-3" x1="8390.9" y1="2093.04" x2="-1404.85" y2="2093.04"/>
      <line class="cls-3" x1="8390.9" y1="2123.73" x2="-1404.85" y2="2123.73"/>
      <line class="cls-3" x1="8390.9" y1="2154.43" x2="-1404.85" y2="2154.43"/>
      <line class="cls-3" x1="8390.9" y1="2185.12" x2="-1404.85" y2="2185.12"/>
      <line class="cls-3" x1="8390.9" y1="2215.81" x2="-1404.85" y2="2215.81"/>
      <line class="cls-3" x1="8390.9" y1="2246.51" x2="-1404.85" y2="2246.51"/>
      <line class="cls-3" x1="8390.9" y1="2277.2" x2="-1404.85" y2="2277.2"/>
      <line class="cls-3" x1="8390.9" y1="2307.89" x2="-1404.85" y2="2307.89"/>
      <line class="cls-3" x1="8390.9" y1="2338.59" x2="-1404.85" y2="2338.59"/>
      <line class="cls-3" x1="8390.9" y1="2369.28" x2="-1404.85" y2="2369.28"/>
      <line class="cls-3" x1="8390.9" y1="2399.97" x2="-1404.85" y2="2399.97"/>
      <line class="cls-3" x1="8390.9" y1="2430.67" x2="-1404.85" y2="2430.67"/>
      <line class="cls-3" x1="8390.9" y1="2461.36" x2="-1404.85" y2="2461.36"/>
      <line class="cls-3" x1="8390.9" y1="2492.06" x2="-1404.85" y2="2492.06"/>
      <line class="cls-3" x1="8390.9" y1="2522.75" x2="-1404.85" y2="2522.75"/>
      <line class="cls-3" x1="8390.9" y1="2553.44" x2="-1404.85" y2="2553.44"/>
      <line class="cls-3" x1="8390.9" y1="2584.14" x2="-1404.85" y2="2584.14"/>
      <line class="cls-3" x1="8390.9" y1="2614.83" x2="-1404.85" y2="2614.83"/>
      <line class="cls-3" x1="8390.9" y1="2645.52" x2="-1404.85" y2="2645.52"/>
      <line class="cls-3" x1="8390.9" y1="2676.22" x2="-1404.85" y2="2676.22"/>
      <line class="cls-3" x1="8390.9" y1="2706.91" x2="-1404.85" y2="2706.91"/>
      <line class="cls-3" x1="8390.9" y1="2737.6" x2="-1404.85" y2="2737.6"/>
      <line class="cls-3" x1="8390.9" y1="2768.3" x2="-1404.85" y2="2768.3"/>
      <line class="cls-3" x1="8390.9" y1="2798.99" x2="-1404.85" y2="2798.99"/>
      <line class="cls-3" x1="8390.9" y1="2829.68" x2="-1404.85" y2="2829.68"/>
      <line class="cls-3" x1="8390.9" y1="2860.38" x2="-1404.85" y2="2860.38"/>
      <line class="cls-3" x1="8390.9" y1="2891.07" x2="-1404.85" y2="2891.07"/>
      <line class="cls-3" x1="8390.9" y1="2921.77" x2="-1404.85" y2="2921.77"/>
      <line class="cls-3" x1="8390.9" y1="2952.46" x2="-1404.85" y2="2952.46"/>
      <line class="cls-3" x1="8390.9" y1="2983.15" x2="-1404.85" y2="2983.15"/>
      <line class="cls-3" x1="8390.9" y1="3013.85" x2="-1404.85" y2="3013.85"/>
      <line class="cls-3" x1="8390.9" y1="3044.54" x2="-1404.85" y2="3044.54"/>
      <line class="cls-3" x1="8390.9" y1="3075.23" x2="-1404.85" y2="3075.23"/>
      <line class="cls-3" x1="8390.9" y1="3105.93" x2="-1404.85" y2="3105.93"/>
      <line class="cls-3" x1="8390.9" y1="3136.62" x2="-1404.85" y2="3136.62"/>
      <line class="cls-3" x1="8390.9" y1="3167.31" x2="-1404.85" y2="3167.31"/>
      <line class="cls-3" x1="8390.9" y1="3198.01" x2="-1404.85" y2="3198.01"/>
      <line class="cls-3" x1="8390.9" y1="3228.7" x2="-1404.85" y2="3228.7"/>
      <line class="cls-3" x1="8390.9" y1="3259.39" x2="-1404.85" y2="3259.39"/>
      <line class="cls-3" x1="8390.9" y1="3290.09" x2="-1404.85" y2="3290.09"/>
      <line class="cls-3" x1="8390.9" y1="3320.78" x2="-1404.85" y2="3320.78"/>
      <line class="cls-3" x1="8390.9" y1="3351.48" x2="-1404.85" y2="3351.48"/>
      <line class="cls-3" x1="8390.9" y1="3382.17" x2="-1404.85" y2="3382.17"/>
      <line class="cls-3" x1="8390.9" y1="3412.86" x2="-1404.85" y2="3412.86"/>
      <line class="cls-3" x1="8390.9" y1="3443.56" x2="-1404.85" y2="3443.56"/>
      <line class="cls-3" x1="8390.9" y1="3474.25" x2="-1404.85" y2="3474.25"/>
      <line class="cls-3" x1="8390.9" y1="3504.94" x2="-1404.85" y2="3504.94"/>
      <line class="cls-3" x1="8390.9" y1="3535.64" x2="-1404.85" y2="3535.64"/>
      <line class="cls-3" x1="8390.9" y1="3566.33" x2="-1404.85" y2="3566.33"/>
      <line class="cls-3" x1="8390.9" y1="3597.02" x2="-1404.85" y2="3597.02"/>
      <line class="cls-3" x1="8390.9" y1="3627.72" x2="-1404.85" y2="3627.72"/>
      <line class="cls-3" x1="8390.9" y1="3658.41" x2="-1404.85" y2="3658.41"/>
      <line class="cls-3" x1="8390.9" y1="3689.1" x2="-1404.85" y2="3689.1"/>
      <line class="cls-3" x1="8390.9" y1="3719.8" x2="-1404.85" y2="3719.8"/>
      <line class="cls-3" x1="8390.9" y1="3750.49" x2="-1404.85" y2="3750.49"/>
      <line class="cls-3" x1="8390.9" y1="3781.19" x2="-1404.85" y2="3781.19"/>
      <line class="cls-3" x1="8390.9" y1="3811.88" x2="-1404.85" y2="3811.88"/>
      <line class="cls-3" x1="8390.9" y1="3842.57" x2="-1404.85" y2="3842.57"/>
      <line class="cls-3" x1="8390.9" y1="3873.27" x2="-1404.85" y2="3873.27"/>
      <line class="cls-3" x1="8390.9" y1="3903.96" x2="-1404.85" y2="3903.96"/>
      <line class="cls-3" x1="8390.9" y1="3934.65" x2="-1404.85" y2="3934.65"/>
      <line class="cls-3" x1="8390.9" y1="3965.35" x2="-1404.85" y2="3965.35"/>
      <line class="cls-3" x1="8390.9" y1="3996.04" x2="-1404.85" y2="3996.04"/>
      <line class="cls-3" x1="8390.9" y1="4026.73" x2="-1404.85" y2="4026.73"/>
      <line class="cls-3" x1="8390.9" y1="4057.43" x2="-1404.85" y2="4057.43"/>
      <line class="cls-3" x1="8390.9" y1="4088.12" x2="-1404.85" y2="4088.12"/>
      <line class="cls-3" x1="8390.9" y1="4118.82" x2="-1404.85" y2="4118.82"/>
    </g>
    <g>
      <line class="cls-3" x1="8390.9" y1="4144.94" x2="-1404.85" y2="4144.94"/>
      <line class="cls-3" x1="8390.9" y1="4175.63" x2="-1404.85" y2="4175.63"/>
      <line class="cls-3" x1="8390.9" y1="4206.32" x2="-1404.85" y2="4206.32"/>
      <line class="cls-3" x1="8390.9" y1="4237.02" x2="-1404.85" y2="4237.02"/>
      <line class="cls-3" x1="8390.9" y1="4267.71" x2="-1404.85" y2="4267.71"/>
      <line class="cls-3" x1="8390.9" y1="4298.41" x2="-1404.85" y2="4298.41"/>
      <line class="cls-3" x1="8390.9" y1="4329.1" x2="-1404.85" y2="4329.1"/>
      <line class="cls-3" x1="8390.9" y1="4359.79" x2="-1404.85" y2="4359.79"/>
      <line class="cls-3" x1="8390.9" y1="4390.49" x2="-1404.85" y2="4390.49"/>
      <line class="cls-3" x1="8390.9" y1="4421.18" x2="-1404.85" y2="4421.18"/>
      <line class="cls-3" x1="8390.9" y1="4451.87" x2="-1404.85" y2="4451.87"/>
      <line class="cls-3" x1="8390.9" y1="4482.57" x2="-1404.85" y2="4482.57"/>
      <line class="cls-3" x1="8390.9" y1="4513.26" x2="-1404.85" y2="4513.26"/>
      <line class="cls-3" x1="8390.9" y1="4543.95" x2="-1404.85" y2="4543.95"/>
      <line class="cls-3" x1="8390.9" y1="4574.65" x2="-1404.85" y2="4574.65"/>
      <line class="cls-3" x1="8390.9" y1="4605.34" x2="-1404.85" y2="4605.34"/>
      <line class="cls-3" x1="8390.9" y1="4636.03" x2="-1404.85" y2="4636.03"/>
      <line class="cls-3" x1="8390.9" y1="4666.73" x2="-1404.85" y2="4666.73"/>
      <line class="cls-3" x1="8390.9" y1="4697.42" x2="-1404.85" y2="4697.42"/>
      <line class="cls-3" x1="8390.9" y1="4728.12" x2="-1404.85" y2="4728.12"/>
      <line class="cls-3" x1="8390.9" y1="4758.81" x2="-1404.85" y2="4758.81"/>
      <line class="cls-3" x1="8390.9" y1="4789.5" x2="-1404.85" y2="4789.5"/>
      <line class="cls-3" x1="8390.9" y1="4820.2" x2="-1404.85" y2="4820.2"/>
      <line class="cls-3" x1="8390.9" y1="4850.89" x2="-1404.85" y2="4850.89"/>
      <line class="cls-3" x1="8390.9" y1="4881.58" x2="-1404.85" y2="4881.58"/>
      <line class="cls-3" x1="8390.9" y1="4912.28" x2="-1404.85" y2="4912.28"/>
      <line class="cls-3" x1="8390.9" y1="4942.97" x2="-1404.85" y2="4942.97"/>
      <line class="cls-3" x1="8390.9" y1="4973.66" x2="-1404.85" y2="4973.66"/>
      <line class="cls-3" x1="8390.9" y1="5004.36" x2="-1404.85" y2="5004.36"/>
      <line class="cls-3" x1="8390.9" y1="5035.05" x2="-1404.85" y2="5035.05"/>
      <line class="cls-3" x1="8390.9" y1="5065.75" x2="-1404.85" y2="5065.75"/>
      <line class="cls-3" x1="8390.9" y1="5096.44" x2="-1404.85" y2="5096.44"/>
      <line class="cls-3" x1="8390.9" y1="5127.13" x2="-1404.85" y2="5127.13"/>
      <line class="cls-3" x1="8390.9" y1="5157.83" x2="-1404.85" y2="5157.83"/>
      <line class="cls-3" x1="8390.9" y1="5188.52" x2="-1404.85" y2="5188.52"/>
      <line class="cls-3" x1="8390.9" y1="5219.21" x2="-1404.85" y2="5219.21"/>
      <line class="cls-3" x1="8390.9" y1="5249.91" x2="-1404.85" y2="5249.91"/>
      <line class="cls-3" x1="8390.9" y1="5280.6" x2="-1404.85" y2="5280.6"/>
      <line class="cls-3" x1="8390.9" y1="5311.29" x2="-1404.85" y2="5311.29"/>
      <line class="cls-3" x1="8390.9" y1="5341.99" x2="-1404.85" y2="5341.99"/>
      <line class="cls-3" x1="8390.9" y1="5372.68" x2="-1404.85" y2="5372.68"/>
      <line class="cls-3" x1="8390.9" y1="5403.37" x2="-1404.85" y2="5403.37"/>
      <line class="cls-3" x1="8390.9" y1="5434.07" x2="-1404.85" y2="5434.07"/>
      <line class="cls-3" x1="8390.9" y1="5464.76" x2="-1404.85" y2="5464.76"/>
      <line class="cls-3" x1="8390.9" y1="5495.46" x2="-1404.85" y2="5495.46"/>
      <line class="cls-3" x1="8390.9" y1="5526.15" x2="-1404.85" y2="5526.15"/>
      <line class="cls-3" x1="8390.9" y1="5556.84" x2="-1404.85" y2="5556.84"/>
      <line class="cls-3" x1="8390.9" y1="5587.54" x2="-1404.85" y2="5587.54"/>
      <line class="cls-3" x1="8390.9" y1="5618.23" x2="-1404.85" y2="5618.23"/>
      <line class="cls-3" x1="8390.9" y1="5648.92" x2="-1404.85" y2="5648.92"/>
      <line class="cls-3" x1="8390.9" y1="5679.62" x2="-1404.85" y2="5679.62"/>
      <line class="cls-3" x1="8390.9" y1="5710.31" x2="-1404.85" y2="5710.31"/>
      <line class="cls-3" x1="8390.9" y1="5741" x2="-1404.85" y2="5741"/>
      <line class="cls-3" x1="8390.9" y1="5771.7" x2="-1404.85" y2="5771.7"/>
      <line class="cls-3" x1="8390.9" y1="5802.39" x2="-1404.85" y2="5802.39"/>
      <line class="cls-3" x1="8390.9" y1="5833.08" x2="-1404.85" y2="5833.08"/>
      <line class="cls-3" x1="8390.9" y1="5863.78" x2="-1404.85" y2="5863.78"/>
      <line class="cls-3" x1="8390.9" y1="5894.47" x2="-1404.85" y2="5894.47"/>
      <line class="cls-3" x1="8390.9" y1="5925.17" x2="-1404.85" y2="5925.17"/>
      <line class="cls-3" x1="8390.9" y1="5955.86" x2="-1404.85" y2="5955.86"/>
      <line class="cls-3" x1="8390.9" y1="5986.55" x2="-1404.85" y2="5986.55"/>
      <line class="cls-3" x1="8390.9" y1="6017.25" x2="-1404.85" y2="6017.25"/>
      <line class="cls-3" x1="8390.9" y1="6047.94" x2="-1404.85" y2="6047.94"/>
      <line class="cls-3" x1="8390.9" y1="6078.63" x2="-1404.85" y2="6078.63"/>
      <line class="cls-3" x1="8390.9" y1="6109.33" x2="-1404.85" y2="6109.33"/>
      <line class="cls-3" x1="8390.9" y1="6140.02" x2="-1404.85" y2="6140.02"/>
      <line class="cls-3" x1="8390.9" y1="6170.71" x2="-1404.85" y2="6170.71"/>
      <line class="cls-3" x1="8390.9" y1="6201.41" x2="-1404.85" y2="6201.41"/>
      <line class="cls-3" x1="8390.9" y1="6232.1" x2="-1404.85" y2="6232.1"/>
      <line class="cls-3" x1="8390.9" y1="6262.79" x2="-1404.85" y2="6262.79"/>
      <line class="cls-3" x1="8390.9" y1="6293.49" x2="-1404.85" y2="6293.49"/>
      <line class="cls-3" x1="8390.9" y1="6324.18" x2="-1404.85" y2="6324.18"/>
      <line class="cls-3" x1="8390.9" y1="6354.88" x2="-1404.85" y2="6354.88"/>
      <line class="cls-3" x1="8390.9" y1="6385.57" x2="-1404.85" y2="6385.57"/>
      <line class="cls-3" x1="8390.9" y1="6416.26" x2="-1404.85" y2="6416.26"/>
      <line class="cls-3" x1="8390.9" y1="6446.96" x2="-1404.85" y2="6446.96"/>
      <line class="cls-3" x1="8390.9" y1="6477.65" x2="-1404.85" y2="6477.65"/>
      <line class="cls-3" x1="8390.9" y1="6508.34" x2="-1404.85" y2="6508.34"/>
      <line class="cls-3" x1="8390.9" y1="6539.04" x2="-1404.85" y2="6539.04"/>
      <line class="cls-3" x1="8390.9" y1="6569.73" x2="-1404.85" y2="6569.73"/>
      <line class="cls-3" x1="8390.9" y1="6600.42" x2="-1404.85" y2="6600.42"/>
      <line class="cls-3" x1="8390.9" y1="6631.12" x2="-1404.85" y2="6631.12"/>
      <line class="cls-3" x1="8390.9" y1="6661.81" x2="-1404.85" y2="6661.81"/>
      <line class="cls-3" x1="8390.9" y1="6692.51" x2="-1404.85" y2="6692.51"/>
      <line class="cls-3" x1="8390.9" y1="6723.2" x2="-1404.85" y2="6723.2"/>
      <line class="cls-3" x1="8390.9" y1="6753.89" x2="-1404.85" y2="6753.89"/>
      <line class="cls-3" x1="8390.9" y1="6784.59" x2="-1404.85" y2="6784.59"/>
      <line class="cls-3" x1="8390.9" y1="6815.28" x2="-1404.85" y2="6815.28"/>
      <line class="cls-3" x1="8390.9" y1="6845.97" x2="-1404.85" y2="6845.97"/>
      <line class="cls-3" x1="8390.9" y1="6876.67" x2="-1404.85" y2="6876.67"/>
      <line class="cls-3" x1="8390.9" y1="6907.36" x2="-1404.85" y2="6907.36"/>
      <line class="cls-3" x1="8390.9" y1="6938.05" x2="-1404.85" y2="6938.05"/>
      <line class="cls-3" x1="8390.9" y1="6968.75" x2="-1404.85" y2="6968.75"/>
      <line class="cls-3" x1="8390.9" y1="6999.44" x2="-1404.85" y2="6999.44"/>
      <line class="cls-3" x1="8390.9" y1="7030.13" x2="-1404.85" y2="7030.13"/>
      <line class="cls-3" x1="8390.9" y1="7060.83" x2="-1404.85" y2="7060.83"/>
      <line class="cls-3" x1="8390.9" y1="7091.52" x2="-1404.85" y2="7091.52"/>
      <line class="cls-3" x1="8390.9" y1="7122.22" x2="-1404.85" y2="7122.22"/>
      <line class="cls-3" x1="8390.9" y1="7152.91" x2="-1404.85" y2="7152.91"/>
      <line class="cls-3" x1="8390.9" y1="7183.6" x2="-1404.85" y2="7183.6"/>
      <line class="cls-3" x1="8390.9" y1="7214.3" x2="-1404.85" y2="7214.3"/>
      <line class="cls-3" x1="8390.9" y1="7244.99" x2="-1404.85" y2="7244.99"/>
      <line class="cls-3" x1="8390.9" y1="7275.68" x2="-1404.85" y2="7275.68"/>
      <line class="cls-3" x1="8390.9" y1="7306.38" x2="-1404.85" y2="7306.38"/>
      <line class="cls-3" x1="8390.9" y1="7337.07" x2="-1404.85" y2="7337.07"/>
      <line class="cls-3" x1="8390.9" y1="7367.76" x2="-1404.85" y2="7367.76"/>
      <line class="cls-3" x1="8390.9" y1="7398.46" x2="-1404.85" y2="7398.46"/>
      <line class="cls-3" x1="8390.9" y1="7429.15" x2="-1404.85" y2="7429.15"/>
      <line class="cls-3" x1="8390.9" y1="7459.84" x2="-1404.85" y2="7459.84"/>
      <line class="cls-3" x1="8390.9" y1="7490.54" x2="-1404.85" y2="7490.54"/>
      <line class="cls-3" x1="8390.9" y1="7521.23" x2="-1404.85" y2="7521.23"/>
      <line class="cls-3" x1="8390.9" y1="7551.93" x2="-1404.85" y2="7551.93"/>
      <line class="cls-3" x1="8390.9" y1="7582.62" x2="-1404.85" y2="7582.62"/>
      <line class="cls-3" x1="8390.9" y1="7613.31" x2="-1404.85" y2="7613.31"/>
      <line class="cls-3" x1="8390.9" y1="7644.01" x2="-1404.85" y2="7644.01"/>
      <line class="cls-3" x1="8390.9" y1="7674.7" x2="-1404.85" y2="7674.7"/>
      <line class="cls-3" x1="8390.9" y1="7705.39" x2="-1404.85" y2="7705.39"/>
      <line class="cls-3" x1="8390.9" y1="7736.09" x2="-1404.85" y2="7736.09"/>
      <line class="cls-3" x1="8390.9" y1="7766.78" x2="-1404.85" y2="7766.78"/>
      <line class="cls-3" x1="8390.9" y1="7797.47" x2="-1404.85" y2="7797.47"/>
      <line class="cls-3" x1="8390.9" y1="7828.17" x2="-1404.85" y2="7828.17"/>
      <line class="cls-3" x1="8390.9" y1="7858.86" x2="-1404.85" y2="7858.86"/>
      <line class="cls-3" x1="8390.9" y1="7889.56" x2="-1404.85" y2="7889.56"/>
      <line class="cls-3" x1="8390.9" y1="7920.25" x2="-1404.85" y2="7920.25"/>
      <line class="cls-3" x1="8390.9" y1="7950.94" x2="-1404.85" y2="7950.94"/>
      <line class="cls-3" x1="8390.9" y1="7981.64" x2="-1404.85" y2="7981.64"/>
      <line class="cls-3" x1="8390.9" y1="8012.33" x2="-1404.85" y2="8012.33"/>
      <line class="cls-3" x1="8390.9" y1="8043.02" x2="-1404.85" y2="8043.02"/>
      <line class="cls-3" x1="8390.9" y1="8073.72" x2="-1404.85" y2="8073.72"/>
      <line class="cls-3" x1="8390.9" y1="8104.41" x2="-1404.85" y2="8104.41"/>
      <line class="cls-3" x1="8390.9" y1="8135.1" x2="-1404.85" y2="8135.1"/>
      <line class="cls-3" x1="8390.9" y1="8165.8" x2="-1404.85" y2="8165.8"/>
    </g>
  </g>
</svg>